<svg xmlns="http://www.w3.org/2000/svg" viewBox="0 0 1000 1000">
  <path fill="#339af0" d="M 183,508.5 V 180 H 284.5 386 v 52 c 0,29.21353 0.38504,52 0.87868,52 0.48327,0 1.47023,-1.4625 2.19323,-3.25 0.723,-1.7875 1.59886,-3.475 1.94637,-3.75 0.76367,-0.60433 9.01753,-12.43052 10.62992,-15.23061 0.63151,-1.09669 3.13302,-4.08095 5.5589,-6.63169 2.42589,-2.55073 5.62178,-6.462 7.10198,-8.6917 1.4802,-2.2297 4.26619,-5.58048 6.19109,-7.44617 1.92491,-1.86569 3.49983,-3.94601 3.49983,-4.62294 0,-0.67692 2.27526,-2.95115 5.05614,-5.05383 2.78088,-2.10268 6.45318,-5.28556 8.16068,-7.07306 1.70749,-1.7875 3.6101,-3.25 4.22802,-3.25 0.61791,0 3.56774,-2.475 6.55516,-5.5 2.98742,-3.025 5.89705,-5.50106 6.46584,-5.50235 0.56879,-0.001 2.60916,-1.36959 4.53416,-3.04068 1.925,-1.67108 5.1875,-4.00289 7.25,-5.18179 2.0625,-1.1789 3.75,-2.5106 3.75,-2.95932 0,-0.44872 0.7875,-0.83017 1.75,-0.84766 0.9625,-0.0175 2.62351,-0.6925 3.69113,-1.5 1.06762,-0.80751 2.61362,-1.4682 3.43555,-1.4682 0.82193,0 2.42342,-0.85934 3.55887,-1.90964 2.38322,-2.2045 36.34263,-16.52391 41.56445,-17.52618 1.925,-0.36948 8.36418,-1.79829 14.30929,-3.17513 40.93091,-9.47932 82.71791,-9.41972 121.69071,0.17354 3.575,0.88 8.075,1.82829 10,2.1073 4.55118,0.65968 15.66447,4.86421 27.56572,10.42904 2.23615,1.04559 4.52889,1.90107 5.09497,1.90107 0.56608,0 3.81419,1.8 7.21802,4 3.40382,2.2 6.65729,4 7.22993,4 1.4112,0 14.42058,8.47306 18.13495,11.81136 17.72962,15.93456 36.9828,38.02513 39.18308,44.95759 0.38739,1.22057 1.30429,2.81915 2.03756,3.55242 C 778.57665,255.43379 791,279.68811 791,281.6998 c 0,0.99886 1.07314,3.83753 2.38476,6.30816 4.6521,8.76291 9.93242,27.12194 13.65939,47.49204 0.60378,3.3 1.77078,9.6 2.59335,14 2.92736,15.65888 3.4334,20.29086 4.86156,44.5 1.17598,19.93438 1.4505,63.49413 1.47313,233.75 L 816,837 H 714.54071 613.08141 L 612.775,633.75 612.46858,430.5 610.19118,419 c -3.88821,-19.63388 -5.17369,-24.18325 -9.75262,-34.51502 C 597.99735,378.97671 596,373.96346 596,373.34442 c 0,-1.40922 -11.39972,-18.85539 -12.94429,-19.80999 -0.62521,-0.3864 -2.24916,-2.46472 -3.60877,-4.61849 C 578.08732,346.76217 576.61759,345 576.18087,345 c -0.43673,0 -2.86099,-1.92483 -5.38725,-4.27739 -2.52626,-2.35256 -5.8693,-4.94006 -7.42897,-5.75 -1.55967,-0.80994 -5.86855,-3.11969 -9.57528,-5.13278 -14.46517,-7.85592 -16.86762,-8.26456 -48.28937,-8.21376 l -28,0.0453 -8.48497,3.22582 c -7.47941,2.84352 -18.52391,8.17347 -21.48345,10.36766 -14.36487,10.65005 -13.92953,10.2985 -21.34346,17.23519 -7.27994,6.81132 -20.86231,26.65519 -26.52664,38.75549 -4.74874,10.14436 -9.01579,23.06089 -11.31289,34.24451 -1.75678,8.55301 -1.86172,18.99521 -2.11292,210.25 L 385.97134,837 H 284.48567 183 Z"/>
</svg>
